<svg width="16" height="16" viewBox="0 0 16 16" fill="none" xmlns="http://www.w3.org/2000/svg">
<path d="M13.8673 8.50019L7.20065 6.45353C7.08428 6.41898 6.96068 6.41687 6.84319 6.44742C6.72571 6.47796 6.6188 6.54001 6.53398 6.62686C6.44944 6.71307 6.3899 6.82063 6.36172 6.93805C6.33354 7.05546 6.33778 7.17833 6.37398 7.29352L8.51398 13.8802C8.55591 14.0053 8.63405 14.1152 8.73849 14.1959C8.84293 14.2766 8.96897 14.3245 9.10065 14.3335H9.15398C9.27779 14.3325 9.39888 14.2971 9.50368 14.2311C9.60848 14.1652 9.69284 14.0714 9.74732 13.9602L11.1473 11.1335L14.0007 9.73353C14.1196 9.67356 14.2179 9.57933 14.2828 9.46297C14.3477 9.34662 14.3763 9.21349 14.3648 9.08075C14.3533 8.94802 14.3023 8.82176 14.2184 8.71828C14.1345 8.6148 14.0215 8.53884 13.894 8.50019H13.8673ZM4.18732 3.25353C4.06178 3.12799 3.89152 3.05746 3.71398 3.05746C3.53645 3.05746 3.36619 3.12799 3.24065 3.25353C3.11511 3.37906 3.04459 3.54932 3.04459 3.72686C3.04459 3.90439 3.11511 4.07466 3.24065 4.20019L5.08065 6.03353C5.14294 6.09531 5.21682 6.1442 5.29805 6.17737C5.37927 6.21055 5.46625 6.22737 5.55398 6.22686C5.72192 6.22101 5.88145 6.15196 6.00065 6.03353C6.06314 5.97155 6.11273 5.89782 6.14658 5.81658C6.18042 5.73534 6.19785 5.6482 6.19785 5.56019C6.19785 5.47218 6.18042 5.38505 6.14658 5.30381C6.11273 5.22257 6.06314 5.14883 6.00065 5.08686L4.18732 3.25353ZM4.54065 8.18686C4.70044 8.18891 4.85566 8.1335 4.97802 8.03072C5.10039 7.92793 5.18176 7.78461 5.20732 7.62686C5.2364 7.45371 5.196 7.27608 5.0949 7.13253C4.99379 6.98899 4.84015 6.89113 4.66732 6.86019L2.07398 6.45353C1.90206 6.43244 1.72867 6.47911 1.59055 6.58363C1.45243 6.68816 1.36041 6.84234 1.33398 7.01353C1.3071 7.18761 1.35021 7.36526 1.45389 7.50766C1.55757 7.65006 1.71339 7.74564 1.88732 7.77352L4.45398 8.18019L4.54065 8.18686ZM4.57398 9.10686L2.26065 10.2802C2.12779 10.3483 2.02161 10.4589 1.95913 10.5945C1.89665 10.7301 1.88149 10.8827 1.91606 11.028C1.95064 11.1732 2.03296 11.3026 2.14983 11.3955C2.26671 11.4883 2.41137 11.5393 2.56065 11.5402C2.6653 11.542 2.76865 11.5168 2.86065 11.4669L5.18065 10.2935C5.26125 10.2553 5.33335 10.2013 5.39268 10.1346C5.45202 10.068 5.49738 9.99019 5.52609 9.90573C5.55479 9.82126 5.56625 9.7319 5.55979 9.64292C5.55333 9.55395 5.52908 9.46718 5.48847 9.38775C5.44786 9.30832 5.39173 9.23785 5.32339 9.18051C5.25505 9.12317 5.1759 9.08013 5.09062 9.05393C5.00535 9.02774 4.91568 9.01893 4.82694 9.02802C4.73819 9.03711 4.65218 9.06392 4.57398 9.10686ZM9.40732 5.51353C9.50279 5.56054 9.60757 5.5856 9.71398 5.58686C9.83709 5.58649 9.9577 5.55203 10.0624 5.48731C10.1672 5.42259 10.2519 5.33014 10.3073 5.22019L11.4873 2.91353C11.5296 2.83463 11.5556 2.74802 11.5637 2.65886C11.5718 2.5697 11.5619 2.47982 11.5345 2.39459C11.5072 2.30935 11.4629 2.2305 11.4044 2.16274C11.3459 2.09498 11.2743 2.0397 11.194 2.00019C11.0373 1.92063 10.8556 1.9061 10.6884 1.95978C10.5211 2.01346 10.3817 2.13101 10.3006 2.28686L9.12065 4.61353C9.08021 4.69141 9.05555 4.77651 9.04808 4.86395C9.0406 4.95138 9.05047 5.03944 9.0771 5.12305C9.10373 5.20667 9.14661 5.2842 9.20328 5.35121C9.25995 5.41822 9.32928 5.47338 9.40732 5.51353ZM7.52732 5.23353H7.63398C7.72076 5.21975 7.80397 5.18896 7.87881 5.14292C7.95365 5.09688 8.01865 5.0365 8.07007 4.96525C8.1215 4.894 8.15833 4.81329 8.17845 4.72776C8.19857 4.64223 8.20158 4.55356 8.18732 4.46686L7.78065 1.90686C7.76664 1.81931 7.73553 1.73538 7.68908 1.65986C7.64264 1.58433 7.58177 1.5187 7.50996 1.4667C7.43815 1.41469 7.3568 1.37735 7.27056 1.35679C7.18431 1.33622 7.09486 1.33285 7.00732 1.34686C6.91977 1.36087 6.83584 1.39198 6.76031 1.43842C6.68479 1.48487 6.61915 1.54573 6.56715 1.61755C6.51515 1.68936 6.47781 1.77071 6.45724 1.85695C6.43668 1.94319 6.43331 2.03264 6.44732 2.12019L6.86732 4.66686C6.89126 4.82469 6.97104 4.96868 7.09216 5.07267C7.21328 5.17666 7.36768 5.23374 7.52732 5.23353Z" fill="#3B82F6"/>
<path d="M11.9428 8.85635L8.1447 7.67316C8.0784 7.65319 8.00798 7.65197 7.94105 7.66963C7.87411 7.68729 7.8132 7.72316 7.76488 7.77336C7.71671 7.82321 7.68279 7.88539 7.66674 7.95327C7.65068 8.02114 7.6531 8.09217 7.67373 8.15877L8.89293 11.9666C8.91682 12.0389 8.96133 12.1025 9.02083 12.1491C9.08034 12.1958 9.15215 12.2235 9.22717 12.2287H9.25755C9.32809 12.2281 9.39708 12.2076 9.45678 12.1695C9.51649 12.1313 9.56455 12.0771 9.59559 12.0128L10.3932 10.3787L12.0188 9.56936C12.0866 9.53469 12.1426 9.48021 12.1796 9.41295C12.2165 9.34568 12.2328 9.26872 12.2263 9.19198C12.2197 9.11525 12.1907 9.04226 12.1429 8.98243C12.0951 8.92261 12.0307 8.8787 11.958 8.85635H11.9428Z" fill="white"/>
</svg>
