<svg width="80" height="66" viewBox="0 0 80 66" fill="none" xmlns="http://www.w3.org/2000/svg">
<path fill-rule="evenodd" clip-rule="evenodd" d="M14.367 0.203003H8.4568V10.637H14.367V0.203003ZM71.547 0.203003H65.6368V10.637H71.547V0.203003ZM51.051 29.965C48.2229 27.1369 44.3166 25.3869 40 25.3869C35.6834 25.3869 31.7773 27.1369 28.949 29.965C26.1207 32.7931 24.3709 36.6994 24.3709 41.016C24.3709 45.3326 26.1209 49.2387 28.949 52.067C31.7771 54.8953 35.6834 56.6451 40 56.6451C44.3166 56.6451 48.2227 54.8951 51.051 52.067C53.8793 49.2389 55.6291 45.3326 55.6291 41.016C55.6291 36.6994 53.8791 32.7933 51.051 29.965ZM40 21.1798C45.4766 21.1798 50.438 23.3986 54.027 26.9884C57.6168 30.5782 59.8356 35.5392 59.8356 41.0154C59.8356 46.4916 57.6168 51.4534 54.027 55.0424C50.4372 58.6322 45.4762 60.851 40 60.851C34.5238 60.851 29.562 58.6322 25.973 55.0424C22.3832 51.4526 20.1644 46.4916 20.1644 41.0154C20.1644 35.5392 22.3832 30.5774 25.973 26.9884C29.5628 23.3986 34.5238 21.1798 40 21.1798ZM28.859 43.5428C28.0543 42.7069 28.0817 41.3787 28.9176 40.574C29.7535 39.7693 31.0817 39.7967 31.8864 40.6326L37.1481 46.1092L47.9371 31.4332C48.6246 30.4957 49.9371 30.2965 50.8746 30.9801C51.8121 31.6676 52.0113 32.9801 51.3277 33.9176L39.0617 50.6056C38.9914 50.6993 38.9133 50.7931 38.8234 50.8751C37.9875 51.6798 36.6593 51.6524 35.8546 50.8165L28.8663 43.5431L28.859 43.5428ZM0 25.9448V13.2808C0 11.7027 0.64844 10.2691 1.6875 9.2261C2.38672 8.52688 3.2656 8.0034 4.2422 7.7378V12.7456C4.2422 13.9097 5.18361 14.8511 6.3477 14.8511H16.4687C17.6328 14.8511 18.5742 13.9097 18.5742 12.7456V7.5386H61.4222V12.7456C61.4222 13.9097 62.3636 14.8511 63.5277 14.8511H73.6487C74.8128 14.8511 75.7542 13.9097 75.7542 12.7456V7.7378C76.7347 8.00342 77.6097 8.52686 78.3089 9.2261C79.3519 10.2691 79.9964 11.7027 79.9964 13.2808V26.2688H62.1214C60.9573 26.2688 60.0159 27.2102 60.0159 28.3743C60.0159 29.5345 60.9573 30.4798 62.1214 30.4798H79.9964V60.0538C79.9964 61.6319 79.348 63.0655 78.3089 64.1085C77.2659 65.1515 75.8323 65.796 74.2542 65.796H5.7422C4.1641 65.796 2.7305 65.1476 1.6875 64.1085C0.6445 63.0655 0 61.6319 0 60.0538V30.1398L19.051 30.4718C20.2072 30.4914 21.1643 29.5656 21.1799 28.4093C21.1994 27.2531 20.2736 26.296 19.1174 26.2804L0.00039959 25.9484L0 25.9448Z" fill="#2563EB"/>
</svg>
