<svg width="76" height="75" viewBox="0 0 76 75" fill="none" xmlns="http://www.w3.org/2000/svg">
<path d="M73.2984 18.2C71.6984 9.8 65.1984 3.4 56.8984 1.8C44.3984 -0.6 31.5984 -0.6 19.0984 1.8C10.6984 3.4 4.29844 9.9 2.69844 18.2C0.298437 30.7 0.298437 43.5 2.69844 56C4.29844 64.4 10.7984 70.8 19.0984 72.4C25.3984 73.6 31.6984 74.2 37.9984 74.2C44.2984 74.2 50.5984 73.6 56.8984 72.4C65.2984 70.8 71.6984 64.3 73.2984 56C75.7984 43.5 75.7984 30.7 73.2984 18.2ZM69.7984 55.3C68.4984 62.2 63.0984 67.5 56.1984 68.9C44.0984 71.2 31.8984 71.2 19.7984 68.9C12.8984 67.6 7.59844 62.2 6.19844 55.3C3.89844 43.2 3.89844 31 6.19844 18.9C7.49844 12 12.8984 6.7 19.7984 5.3C25.7984 4.1 31.8984 3.6 37.9984 3.6C44.0984 3.6 50.1984 4.2 56.1984 5.3C63.0984 6.6 68.3984 12 69.7984 18.9C72.0984 31 72.0984 43.2 69.7984 55.3Z" fill="#EF4444"/>
<path d="M53.5977 27.0001H43.9977V25.3001C43.9977 23.0001 42.0977 21.1001 39.7977 21.1001H36.1977C33.8977 21.1001 31.9977 23.0001 31.9977 25.3001V27.0001H22.3977C21.3977 27.0001 20.5977 27.8001 20.5977 28.8001C20.5977 29.8001 21.3977 30.6001 22.3977 30.6001H23.6977L27.5977 51.5001C27.7977 52.4001 28.4977 53.0001 29.3977 53.0001H46.6977C47.5977 53.0001 48.2977 52.4001 48.4977 51.5001L52.3977 30.6001H53.6977C54.6977 30.6001 55.4977 29.8001 55.4977 28.8001C55.4977 27.9001 54.5977 27.0001 53.5977 27.0001ZM35.5977 25.3001C35.5977 25.0001 35.8977 24.8001 36.1977 24.8001H39.7977C40.0977 24.8001 40.3977 25.0001 40.3977 25.3001V27.0001H35.5977V25.3001ZM45.0977 49.4001H30.8977L27.3977 30.6001H48.6977L45.0977 49.4001Z" fill="#EF4444"/>
<path d="M33.8999 33.4999C32.8999 33.5999 32.0999 34.3999 32.1999 35.3999L32.6999 44.0999C32.7999 45.0999 33.5999 45.7999 34.4999 45.7999H34.5999C35.5999 45.6999 36.3999 44.8999 36.2999 43.8999L35.7999 35.1999C35.6999 34.1999 34.8999 33.3999 33.8999 33.4999Z" fill="#EF4444"/>
<path d="M40.1999 35.1999L39.6999 43.8999C39.5999 44.8999 40.3999 45.7999 41.3999 45.7999H41.4999C42.4999 45.7999 43.2999 45.0999 43.2999 44.0999L43.7999 35.3999C43.8999 34.3999 43.0999 33.4999 42.0999 33.4999C41.0999 33.3999 40.2999 34.1999 40.1999 35.1999Z" fill="#EF4444"/>
</svg>
