<svg width="497" height="528" viewBox="0 0 497 528" fill="none" xmlns="http://www.w3.org/2000/svg">
<path fill-rule="evenodd" clip-rule="evenodd" d="M414.399 28.0825L464.511 67.9865C469.35 72.5411 472.079 78.9027 472.041 85.5485C472.006 92.1939 469.209 98.5254 464.319 103.027L426.239 148.595L296.671 303.123C294.402 305.718 291.385 307.542 288.031 308.339L220.831 323.571C212.015 324.013 204.338 317.603 203.199 308.851V239.795C203.426 236.464 204.767 233.309 207.007 230.835L334.175 87.0585L377.823 34.9305C386.457 23.6115 402.252 20.6544 414.399 28.0825Z" stroke="#3B82F6" stroke-width="48" stroke-linecap="round" stroke-linejoin="round"/>
<path d="M233.056 107.797C246.31 107.797 257.056 97.0519 257.056 83.7969C257.056 70.5422 246.31 59.7969 233.056 59.7969V107.797ZM143.456 83.7969V59.7969H143.399L143.456 83.7969ZM24.0003 203.798H48.0003V203.744L24.0003 203.798ZM24.0003 383.798L48.0003 383.85V383.798H24.0003ZM143.456 503.798L143.399 527.798H143.456V503.798ZM322.656 503.798V527.798H322.714L322.656 503.798ZM442.112 383.798H418.112V383.85L442.112 383.798ZM466.112 263.798C466.112 250.541 455.366 239.798 442.112 239.798C428.858 239.798 418.112 250.541 418.112 263.798H466.112ZM356.362 77.9028C351.302 65.651 337.27 59.819 325.018 64.8769C312.765 69.9348 306.934 83.9671 311.994 96.219L356.362 77.9028ZM431.421 171.903C444.362 169.042 452.534 156.231 449.674 143.289C446.813 130.346 434.003 122.174 421.059 125.035L431.421 171.903ZM113.6 389.814C100.346 389.814 89.6003 400.557 89.6003 413.814C89.6003 427.069 100.346 437.814 113.6 437.814V389.814ZM352.544 437.814C365.798 437.814 376.544 427.069 376.544 413.814C376.544 400.557 365.798 389.814 352.544 389.814V437.814ZM233.056 59.7969H143.456V107.797H233.056V59.7969ZM143.399 59.7969C64.0259 59.9876 -0.169583 124.476 0.000336545 203.85L48.0003 203.744C47.8871 150.878 90.6461 107.924 143.514 107.797L143.399 59.7969ZM0.000336545 203.798V383.798H48.0003V203.798H0.000336545ZM0.000336545 383.744C-0.169583 463.117 64.0259 527.606 143.399 527.798L143.514 479.798C90.6461 479.67 47.8871 436.717 48.0003 383.85L0.000336545 383.744ZM143.456 527.798H322.656V479.798H143.456V527.798ZM322.714 527.798C402.086 527.606 466.282 463.117 466.112 383.744L418.112 383.85C418.224 436.717 375.466 479.67 322.598 479.798L322.714 527.798ZM466.112 383.798V263.798H418.112V383.798H466.112ZM311.994 96.219C318.23 111.327 330.954 132.741 349.971 149.287C369.421 166.212 397.373 179.43 431.421 171.903L421.059 125.035C406.179 128.324 393.251 123.318 381.478 113.075C369.27 102.453 360.429 87.7546 356.362 77.9028L311.994 96.219ZM113.6 437.814H352.544V389.814H113.6V437.814Z" fill="#3B82F6"/>
</svg>
