<svg width="66" height="66" viewBox="0 0 66 66" fill="none" xmlns="http://www.w3.org/2000/svg">
<path d="M60.3298 0.149929C55.514 1.18015 50.9102 5.47121 48.683 8.48134L32.0366 6.4855C31.6799 6.44268 31.3531 6.56948 31.1278 6.79482L1.49844 36.4451C-0.506997 38.4301 -0.491946 41.6883 1.49844 43.6787L22.3172 64.5072C24.3076 66.4976 27.5628 66.4976 29.5532 64.5072L42.8627 51.1716L32.2321 48.6366C27.9662 47.6188 29.432 41.1891 33.7575 42.2215L47.7398 45.5579L44.4677 31.8105C43.457 27.5649 49.8581 25.9782 50.883 30.2765L53.3602 40.6704L59.1826 34.8483C59.4166 34.6097 59.5297 34.2778 59.4898 33.946L57.7947 19.7903C56.0161 21.0376 54.2147 21.982 52.4342 22.5295C49.9191 23.3029 46.8438 23.3953 44.7126 21.2641C43.5571 20.1688 43.2982 18.0349 44.7126 16.6021C45.8308 15.484 47.7183 15.1957 49.2051 16.4346C49.3701 16.4429 49.844 16.4262 50.5028 16.2217C51.7986 15.8234 53.7486 14.7492 55.6655 13.1109C56.0815 12.7554 56.4765 12.3807 56.8622 12.0001L56.656 10.2858C56.5978 9.77876 56.1982 9.37848 55.6914 9.31899L51.287 8.79049C54.2028 5.43204 58.0666 2.84393 60.7596 2.30242C62.219 2.0089 62.978 2.28995 63.3657 2.73854C63.7536 3.18792 63.9746 4.12826 63.5611 5.67966C62.7344 8.78242 59.5481 13.0525 55.7536 15.8522C53.8563 17.2521 52.0322 18.1347 50.5973 18.471C49.1623 18.8074 48.2629 18.5945 47.8236 18.1551C46.787 17.1725 45.2856 18.6739 46.2681 19.7105C47.813 21.2554 50.264 20.8356 51.0957 20.6128C52.9434 20.1797 54.9826 19.1566 57.062 17.6223C61.2209 14.5538 64.6432 10.1558 65.686 6.24233C66.2074 4.28566 66.0743 2.51275 65.0307 1.30325C64.137 0.194656 62.3886 -0.26292 60.3298 0.149929ZM29.2973 21.6186L38.6518 37.9377C39.3822 39.2118 37.472 40.3097 36.7417 39.0355L27.3873 22.7143C26.6435 21.4166 28.5686 20.3474 29.2973 21.6186ZM39.3607 23.2858C41.2276 23.786 42.2682 25.6759 41.7821 27.4923C41.2959 29.3087 39.4319 30.4178 37.5839 29.9221C35.736 29.4264 34.6902 27.5151 35.1712 25.7199C35.6523 23.9247 37.4938 22.7855 39.3607 23.2858ZM37.2961 26.2892C37.1244 26.9299 37.4881 27.6262 38.1512 27.8038C38.8143 27.9813 39.4864 27.561 39.6572 26.9229C39.8281 26.2848 39.4585 25.5914 38.7914 25.4127C38.1243 25.2339 37.4677 25.6484 37.2961 26.2892ZM46.6075 31.3013L50.7068 48.527L33.2505 44.3592C31.8165 44.0166 31.311 46.1537 32.7392 46.4947L51.2762 50.9182L52.3289 55.3223C52.284 55.3057 50.2657 54.9149 48.6615 56.519C47.0573 58.123 46.9514 60.8352 48.6698 62.5516C50.3885 64.268 53.0902 64.1595 54.6984 62.5516C56.3066 60.9437 56.3294 58.3945 54.9391 56.7854L53.678 51.4918L58.9718 52.7593C60.5138 54.0892 63.0576 54.195 64.7362 52.5165C66.4147 50.8381 66.4248 48.1645 64.7445 46.4839C63.0645 44.8033 60.3596 44.8276 58.703 46.4839C57.709 47.4777 57.3101 48.8399 57.5106 50.1404L53.1104 49.0984L48.7447 30.79C48.3996 29.3425 46.2718 29.8904 46.6075 31.3013ZM28.4508 30.7256C30.2969 31.2202 31.3497 33.1136 30.8636 34.93C30.3774 36.7463 28.5032 37.852 26.674 37.3619C24.8448 36.8718 23.7768 34.9656 24.2613 33.1575C24.7458 31.3495 26.6047 30.231 28.4508 30.7256ZM26.3861 33.729C26.2028 34.4138 26.6006 35.0626 27.2434 35.2351C27.8862 35.4076 28.5579 35.0338 28.7387 34.3585C28.9196 33.6834 28.5412 33.0292 27.8815 32.8525C27.2217 32.6758 26.5696 33.0441 26.3861 33.729ZM7.40033 39.6742C7.91378 40.1876 7.92297 41.0442 7.40033 41.5669C6.87768 42.0896 6.03624 42.0957 5.50752 41.5669C4.9788 41.0381 4.982 40.1997 5.50752 39.6742C6.03299 39.1487 6.88687 39.1608 7.40033 39.6742ZM63.183 48.0393C63.9181 48.7743 64.0449 50.0681 63.1789 50.9611C62.3128 51.8543 60.9738 51.6737 60.2613 50.9611C59.5487 50.2486 59.3648 48.9315 60.2571 48.0393C61.1605 47.136 62.4661 47.3223 63.183 48.0393ZM26.3284 58.6035C26.8649 59.14 26.851 59.9736 26.3284 60.4962C25.8057 61.0189 24.9646 61.0253 24.4355 60.4962C23.9064 59.9672 23.9354 59.1037 24.4355 58.6035C24.9357 58.1033 25.7918 58.067 26.3284 58.6035ZM50.2234 60.9962C49.4144 60.1872 49.4242 58.8714 50.2212 58.0744C51.0182 57.2774 52.3139 57.2559 53.1411 58.0827C53.9597 58.9013 53.9359 60.2011 53.1411 60.9959C52.3462 61.7908 51.0515 61.811 50.2234 60.9962Z" fill="#2563EB"/>
</svg>
