<svg width="24" height="25" viewBox="0 0 24 25" fill="none" xmlns="http://www.w3.org/2000/svg">
<path d="M17.9987 14.5001C17.4079 14.504 16.8252 14.6388 16.2927 14.8947C15.7601 15.1506 15.2909 15.5213 14.9187 15.9801L9.81869 13.6301C10.0585 12.8959 10.0585 12.1044 9.81869 11.3701L14.9187 9.02011C15.5203 9.74608 16.359 10.2362 17.2868 10.404C18.2146 10.5717 19.1719 10.4063 19.9896 9.93702C20.8074 9.46769 21.4331 8.72459 21.7562 7.83886C22.0794 6.95312 22.0793 5.9817 21.756 5.09602C21.4326 4.21035 20.8068 3.46736 19.989 2.99818C19.1712 2.52901 18.2139 2.36381 17.2861 2.53174C16.3583 2.69967 15.5197 3.18993 14.9182 3.91601C14.3167 4.64208 13.9911 5.55729 13.9987 6.50011C14.0017 6.73835 14.0251 6.97588 14.0687 7.21011L8.78869 9.64011C8.22576 9.08969 7.51293 8.71763 6.73949 8.57054C5.96605 8.42345 5.1664 8.50788 4.44074 8.81325C3.71507 9.11861 3.09565 9.63133 2.66009 10.2872C2.22452 10.943 1.99219 11.7128 1.99219 12.5001C1.99219 13.2874 2.22452 14.0572 2.66009 14.7131C3.09565 15.3689 3.71507 15.8816 4.44074 16.187C5.1664 16.4923 5.96605 16.5768 6.73949 16.4297C7.51293 16.2826 8.22576 15.9105 8.78869 15.3601L14.0687 17.7901C14.0251 18.0243 14.0017 18.2619 13.9987 18.5001C13.9987 19.2912 14.2333 20.0646 14.6728 20.7224C15.1123 21.3802 15.737 21.8929 16.468 22.1956C17.1989 22.4984 18.0031 22.5776 18.779 22.4233C19.555 22.2689 20.2677 21.888 20.8271 21.3285C21.3865 20.7691 21.7675 20.0564 21.9218 19.2805C22.0762 18.5046 21.997 17.7003 21.6942 16.9694C21.3915 16.2385 20.8788 15.6138 20.221 15.1742C19.5632 14.7347 18.7898 14.5001 17.9987 14.5001ZM17.9987 4.50011C18.3942 4.50011 18.7809 4.61741 19.1098 4.83718C19.4387 5.05694 19.6951 5.3693 19.8464 5.73475C19.9978 6.1002 20.0374 6.50233 19.9603 6.8903C19.8831 7.27826 19.6926 7.63462 19.4129 7.91433C19.1332 8.19403 18.7768 8.38451 18.3889 8.46169C18.0009 8.53886 17.5988 8.49925 17.2333 8.34787C16.8679 8.1965 16.5555 7.94015 16.3357 7.61125C16.116 7.28236 15.9987 6.89568 15.9987 6.50011C15.9987 5.96968 16.2094 5.46097 16.5845 5.0859C16.9595 4.71083 17.4683 4.50011 17.9987 4.50011ZM5.99869 14.5001C5.60312 14.5001 5.21644 14.3828 4.88755 14.1631C4.55865 13.9433 4.3023 13.6309 4.15093 13.2655C3.99955 12.9 3.95994 12.4979 4.03711 12.1099C4.11428 11.722 4.30477 11.3656 4.58447 11.0859C4.86418 10.8062 5.22054 10.6157 5.6085 10.5385C5.99647 10.4614 6.3986 10.501 6.76405 10.6524C7.1295 10.8037 7.44186 11.0601 7.66162 11.389C7.88139 11.7179 7.99869 12.1046 7.99869 12.5001C7.99869 13.0305 7.78797 13.5393 7.4129 13.9143C7.03783 14.2894 6.52912 14.5001 5.99869 14.5001ZM17.9987 20.5001C17.6031 20.5001 17.2164 20.3828 16.8875 20.1631C16.5586 19.9433 16.3023 19.6309 16.1509 19.2655C15.9996 18.9 15.9599 18.4979 16.0371 18.1099C16.1143 17.722 16.3048 17.3656 16.5845 17.0859C16.8642 16.8062 17.2205 16.6157 17.6085 16.5385C17.9965 16.4614 18.3986 16.501 18.7641 16.6524C19.1295 16.8037 19.4419 17.0601 19.6616 17.389C19.8814 17.7179 19.9987 18.1046 19.9987 18.5001C19.9987 19.0305 19.788 19.5393 19.4129 19.9143C19.0378 20.2894 18.5291 20.5001 17.9987 20.5001Z" fill="#3B82F6"/>
</svg>
