<svg width="600" height="668" viewBox="0 0 600 668" fill="none" xmlns="http://www.w3.org/2000/svg">
<path fill-rule="evenodd" clip-rule="evenodd" d="M12.584 103.414C2.98023e-06 121.343 0 174.636 0 281.223V333.713C0 521.647 141.299 612.85 229.952 651.577C254 662.08 266.023 667.333 300 667.333C333.977 667.333 346 662.08 370.047 651.577C458.7 612.85 600 521.647 600 333.713V281.223C600 174.636 600 121.343 587.417 103.414C574.833 85.4847 524.723 68.332 424.503 34.0264L405.41 27.4907C353.167 9.60802 327.047 0.666687 300 0.666687C272.953 0.666687 246.833 9.60802 194.591 27.4907L175.497 34.0264C75.2773 68.332 25.1677 85.4847 12.584 103.414ZM350 434C350 452.41 335.077 467.333 316.667 467.333H283.333C264.923 467.333 250 452.41 250 434V387.29C220.11 369.997 200 337.68 200 300.667C200 245.438 244.77 200.667 300 200.667C355.23 200.667 400 245.438 400 300.667C400 337.68 379.89 369.997 350 387.29V434Z" fill="#2563EB"/>
</svg>
