<svg width="74" height="76" viewBox="0 0 74 76" fill="none" xmlns="http://www.w3.org/2000/svg">
<path fill-rule="evenodd" clip-rule="evenodd" d="M17.2151 0.714996C14.9299 0.714996 13.2424 2.5041 12.9065 4.5275C12.176 8.8947 8.72682 12.34 4.35962 13.0666C2.33622 13.4064 0.547119 15.0939 0.547119 17.3791V22.1682C0.543213 22.2268 0.543213 22.2893 0.547119 22.3479C1.4104 32.3949 6.02372 60.3519 34.1801 74.5819C35.1059 75.0506 36.0512 75.2811 36.9965 75.2811C37.9418 75.2811 38.8871 75.0467 39.8129 74.5819C67.9689 60.3519 72.5829 32.3939 73.4459 22.3479C73.4498 22.2893 73.4498 22.2268 73.4459 22.1682L73.4498 20.0901V17.3831C73.4498 15.0979 71.6607 13.4065 69.6373 13.0706C65.274 12.3401 61.8209 8.8948 61.0943 4.5276C60.7545 2.5042 59.0709 0.715096 56.7857 0.715096L17.2151 0.714996ZM21.6956 9.0431C31.8986 9.05091 42.1016 9.047 52.3006 9.0431C53.1326 9.0431 53.8826 9.53919 54.2147 10.3009C56.0545 14.5509 59.6092 18.1056 63.8592 19.9571C64.6483 20.3048 65.1444 21.0977 65.1053 21.961C64.8827 26.9219 63.828 31.7735 62.2694 36.399C58.2655 48.84 49.6214 59.758 38.0744 66.087C37.7463 66.2667 37.3752 66.3565 37.0002 66.3448C36.6252 66.3565 36.2541 66.2706 35.926 66.087C24.383 59.755 15.738 48.837 11.731 36.399C10.1724 31.774 9.12162 26.9185 8.89512 21.961C8.85606 21.0977 9.35215 20.3048 10.1412 19.9571C14.3912 18.1055 17.9459 14.5548 19.7857 10.3009C20.1138 9.53918 20.8677 9.047 21.6959 9.047L21.6956 9.0431ZM22.7503 13.215C20.6292 17.3127 17.3167 20.6212 13.2542 22.7892C13.5472 26.9415 14.3362 31.0861 15.6878 35.0902V35.1175C19.2503 46.1795 26.9028 55.8795 36.9148 61.7425H37.0867C47.0987 55.8831 54.7547 46.1805 58.3137 35.1175V35.0902C59.6653 31.0863 60.4543 26.9457 60.7473 22.7892C56.6848 20.6212 53.3723 17.3126 51.2512 13.215H22.7503ZM23.723 32.863C24.5667 32.8669 25.3246 33.3786 25.6449 34.1599C28.0043 39.9294 31.5863 45.1829 36.1999 49.2809C36.6139 49.6442 36.8639 50.1637 36.8952 50.7145C36.9303 51.2653 36.7428 51.8083 36.3757 52.2223C36.0085 52.6325 35.4928 52.8864 34.9382 52.9176C34.3874 52.9489 33.8444 52.7614 33.4304 52.3942C28.2976 47.8356 24.3718 42.0502 21.7854 35.7342C21.3518 34.6678 21.8635 33.4569 22.926 33.0194C23.1799 32.9178 23.4495 32.863 23.723 32.863Z" fill="#2563EB"/>
</svg>
