<svg width="668" height="667" viewBox="0 0 668 667" fill="none" xmlns="http://www.w3.org/2000/svg">
<path d="M334.001 0C150.335 0 0.667969 149.667 0.667969 333.333C0.667969 517 150.335 666.667 334.001 666.667C517.668 666.667 667.335 517 667.335 333.333C667.335 149.667 517.668 0 334.001 0ZM493.335 256.667L304.335 445.667C299.668 450.333 293.335 453 286.668 453C280.001 453 273.668 450.333 269.001 445.667L174.668 351.333C165.001 341.667 165.001 325.667 174.668 316C184.335 306.333 200.335 306.333 210.001 316L286.668 392.667L372.335 307L458.001 221.333C467.668 211.667 483.668 211.667 493.335 221.333C503.001 231 503.001 246.667 493.335 256.667Z" fill="#3B82F6"/>
</svg>
