<svg width="42" height="42" viewBox="0 0 42 42" fill="none" xmlns="http://www.w3.org/2000/svg">
<path d="M3.99855 13.0001C6.79855 3.40005 17.1652 2.66672 21.9986 3.50005L39.9999 19.5C44 41 21.9986 44.5 10.9984 37C7.49845 33 1.19855 22.6001 3.99855 13.0001Z" fill="white" stroke="black"/>
<path fill-rule="evenodd" clip-rule="evenodd" d="M6.49103 32.909C9.76107 38.333 15.926 42 23 42C33.502 42 42.0001 33.918 42.0001 24C42.0001 20.843 41.1391 17.872 39.6271 15.29C37.8281 6.591 29.731 0 20 0C8.94597 0 0 8.505 0 18.944C0 24.464 2.50103 29.442 6.49103 32.909ZM39.8071 21.583C38.4511 30.779 30.106 37.889 20 37.889C17.272 37.889 14.672 37.371 12.305 36.434C15.229 38.664 18.952 40 23 40C32.367 40 40.0001 32.847 40.0001 24C40.0001 23.178 39.9341 22.371 39.8071 21.583ZM14 13H11C9.93897 13 8.92197 13.421 8.17197 14.172C7.42097 14.922 6.99997 15.939 6.99997 17C6.99997 18.265 6.99997 19.735 6.99997 21C6.99997 23.209 8.79097 25 11 25H19C21.209 25 23 23.209 23 21C23 19.937 23 19 23 19C23 18.448 22.552 18 22 18C21.448 18 21 18.448 21 19V21C21 22.105 20.105 23 19 23H11C9.89497 23 8.99997 22.105 8.99997 21C8.99997 19.735 8.99997 18.265 8.99997 17C8.99997 16.47 9.21097 15.961 9.58597 15.586C9.96097 15.211 10.47 15 11 15H14C14.552 15 15 14.552 15 14C15 13.448 14.552 13 14 13ZM26 25H29C30.061 25 31.0781 24.579 31.8281 23.828C32.5791 23.078 33 22.061 33 21C33 19.735 33 18.265 33 17C33 14.791 31.209 13 29 13H21C18.791 13 17 14.791 17 17C17 18.063 17 19 17 19C17 19.552 17.448 20 18 20C18.552 20 19 19.552 19 19V17C19 15.895 19.895 15 21 15H29C30.105 15 31 15.895 31 17C31 18.265 31 19.735 31 21C31 21.53 30.789 22.039 30.414 22.414C30.039 22.789 29.53 23 29 23H26C25.448 23 25 23.448 25 24C25 24.552 25.448 25 26 25Z" fill="#1A4FC3"/>
</svg>
